0
SECTION
2
HEADER
9
$INSUNITS
70
4
9
$ACADVER
1
AC1014
9
$HANDSEED
5
FFFF
0
ENDSEC
0
SECTION
2
TABLES
0
TABLE
2
VPORT
5
8
100
AcDbSymbolTable
0
ENDTAB
0
TABLE
2
LTYPE
5
5
100
AcDbSymbolTable
0
LTYPE
5
14
100
AcDbSymbolTableRecord
100
AcDbLinetypeTableRecord
2
BYBLOCK
70
0
0
LTYPE
5
15
100
AcDbSymbolTableRecord
100
AcDbLinetypeTableRecord
2
BYLAYER
70
0
0
ENDTAB
0
TABLE
2
LAYER
5
2
100
AcDbSymbolTable
70
2
0
LAYER
5
50
100
AcDbSymbolTableRecord
100
AcDbLayerTableRecord
2
0
70
0
6
CONTINUOUS
0
ENDTAB
0
TABLE
2
STYLE
5
3
100
AcDbSymbolTable
70
1
0
STYLE
5
11
100
AcDbSymbolTableRecord
100
AcDbTextStyleTableRecord
2
STANDARD
70
0
0
ENDTAB
0
TABLE
2
VIEW
5
6
100
AcDbSymbolTable
70
0
0
ENDTAB
0
TABLE
2
UCS
5
7
100
AcDbSymbolTable
70
0
0
ENDTAB
0
TABLE
2
APPID
5
9
100
AcDbSymbolTable
70
2
0
APPID
5
12
100
AcDbSymbolTableRecord
100
AcDbRegAppTableRecord
2
ACAD
70
0
0
ENDTAB
0
TABLE
2
DIMSTYLE
5
A
100
AcDbSymbolTable
70
1
0
ENDTAB
0
TABLE
2
BLOCK_RECORD
5
1
100
AcDbSymbolTable
70
1
0
BLOCK_RECORD
5
1F
100
AcDbSymbolTableRecord
100
AcDbBlockTableRecord
2
*MODEL_SPACE
0
BLOCK_RECORD
5
1B
100
AcDbSymbolTableRecord
100
AcDbBlockTableRecord
2
*PAPER_SPACE
0
ENDTAB
0
ENDSEC
0
SECTION
2
BLOCKS
0
BLOCK
5
20
100
AcDbEntity
100
AcDbBlockBegin
2
*MODEL_SPACE
0
ENDBLK
5
21
100
AcDbEntity
100
AcDbBlockEnd
0
BLOCK
5
1C
100
AcDbEntity
100
AcDbBlockBegin
2
*PAPER_SPACE
0
ENDBLK
5
1D
100
AcDbEntity
100
AcDbBlockEnd
0
ENDSEC
0
SECTION
2
ENTITIES
0
LWPOLYLINE
5
100
100
AcDbEntity
8
OUTER_PROFILES
100
AcDbPolyline
90
8
70
1
43
0.0
10
0
20
0
10
112.19468914507679
20
0
42
0.41421356237309481
10
115.19468914507681
20
3.0000000000000049
10
115.19468914507681
20
97
42
0.41421356237309503
10
112.19468914507679
20
100
10
1.8369701987210304e-16
20
100
42
0.41421356237309503
10
-3.0000000000000009
20
97
10
-3.0000000000000249
20
3.0000000000000249
42
0.41421356237309503
0
LWPOLYLINE
5
101
100
AcDbEntity
8
INTERIOR_PROFILES
100
AcDbPolyline
90
4
70
1
43
0.0
10
46.09734457253839
20
74.366750419289204
10
46.09734457253839
20
87.63324958071081
42
-0.5366750419289199
10
66.09734457253839
20
87.633249580710796
10
66.09734457253839
20
74.366750419289204
42
-0.53667504192892024
0
LWPOLYLINE
5
102
100
AcDbEntity
8
INTERIOR_PROFILES
100
AcDbPolyline
90
4
70
1
43
0.0
10
66.09734457253839
20
43.366750419289197
42
-0.53667504192891979
10
46.09734457253839
20
43.366750419289197
10
46.09734457253839
20
56.633249580710796
42
-0.53667504192892002
10
66.09734457253839
20
56.633249580710803
0
CIRCLE
5
103
100
AcDbEntity
8
INTERIOR_PROFILES
100
AcDbCircle
10
-0.99999999999999645
20
4.0000000000000213
30
0
40
1.6500000000000004
210
0
220
0
230
-1
0
CIRCLE
5
104
100
AcDbEntity
8
INTERIOR_PROFILES
100
AcDbCircle
10
-40.09734457253839
20
19.000000000000004
30
0
40
1.6500000000000004
210
0
220
0
230
-1
0
CIRCLE
5
105
100
AcDbEntity
8
INTERIOR_PROFILES
100
AcDbCircle
10
-72.09734457253839
20
81
30
0
40
1.6500000000000004
210
0
220
0
230
-1
0
LWPOLYLINE
5
106
100
AcDbEntity
8
INTERIOR_PROFILES
100
AcDbPolyline
90
4
70
1
43
0.0
10
66.097344572538404
20
12.366750419289199
42
-0.53667504192891968
10
46.097344572538397
20
12.36675041928919
10
46.09734457253839
20
25.6332495807108
42
-0.53667504192892035
10
66.097344572538404
20
25.633249580710803
0
CIRCLE
5
107
100
AcDbEntity
8
INTERIOR_PROFILES
100
AcDbCircle
10
-40.097344572538383
20
50
30
0
40
1.6500000000000004
210
0
220
0
230
-1
0
CIRCLE
5
108
100
AcDbEntity
8
INTERIOR_PROFILES
100
AcDbCircle
10
-72.09734457253839
20
50
30
0
40
1.6500000000000004
210
0
220
0
230
-1
0
CIRCLE
5
109
100
AcDbEntity
8
INTERIOR_PROFILES
100
AcDbCircle
10
-21.298672286269102
20
50
30
0
40
7.5
210
0
220
0
230
-1
0
CIRCLE
5
110
100
AcDbEntity
8
INTERIOR_PROFILES
100
AcDbCircle
10
-111.19468914507681
20
96
30
0
40
1.6499999999999915
210
0
220
0
230
-1
0
CIRCLE
5
111
100
AcDbEntity
8
INTERIOR_PROFILES
100
AcDbCircle
10
-0.84164476394653853
20
96.102727890014648
30
0
40
1.6500000000000001
210
0
220
0
230
-1
0
CIRCLE
5
112
100
AcDbEntity
8
INTERIOR_PROFILES
100
AcDbCircle
10
-90.896016858807684
20
50
30
0
40
7.5
210
0
220
0
230
-1
0
CIRCLE
5
113
100
AcDbEntity
8
INTERIOR_PROFILES
100
AcDbCircle
10
-40.09734457253839
20
81
30
0
40
1.6500000000000004
210
0
220
0
230
-1
0
CIRCLE
5
114
100
AcDbEntity
8
INTERIOR_PROFILES
100
AcDbCircle
10
-72.09734457253839
20
19.000000000000004
30
0
40
1.6500000000000004
210
0
220
0
230
-1
0
CIRCLE
5
115
100
AcDbEntity
8
INTERIOR_PROFILES
100
AcDbCircle
10
-111.19468914507679
20
4.0000000000000036
30
0
40
1.6499999999999915
210
0
220
0
230
-1
0
LINE
5
116
100
AcDbEntity
8
BEND
100
AcDbLine
10
104.54535300194223
20
100
30
-6.3064303120908643e-13
11
104.54535300194223
21
0
31
-6.3413089970709522e-13
0
LINE
5
117
100
AcDbEntity
8
BEND
100
AcDbLine
10
7.6493361431345441
20
0
30
-1.9872166398762109e-14
11
7.6493361431345441
21
100
31
-1.9872166398762109e-14
0
LINE
5
118
100
AcDbEntity
8
BEND
100
AcDbLine
10
77.246680715673023
20
0
30
-4.28403518396388e-13
11
77.246680715673023
21
100
31
-4.2951374142101315e-13
0
LINE
5
119
100
AcDbEntity
8
BEND
100
AcDbLine
10
34.948008429403743
20
100
30
-1.4602079781231572e-13
11
34.948008429403743
21
0
31
-1.4508742497651423e-13
0
LINE
5
120
100
AcDbEntity
8
BEND_EXTENT
100
AcDbLine
10
5.9999999999999964
20
0
30
3.9328407606148651e-15
11
5.9999999999999964
21
100
31
3.9328407606148651e-15
0
LINE
5
121
100
AcDbEntity
8
BEND_EXTENT
100
AcDbLine
10
106.19468914507681
20
100
30
-6.3645473510039507e-13
11
106.19468914507679
21
0
31
-6.3645473510039507e-13
0
LINE
5
122
100
AcDbEntity
8
BEND_EXTENT
100
AcDbLine
10
102.89601685880768
20
0
30
-6.1864273985006136e-13
11
102.89601685880768
21
100
31
-6.1864273985006136e-13
0
LINE
5
123
100
AcDbEntity
8
BEND_EXTENT
100
AcDbLine
10
9.2986722862691007
20
100
30
-2.7201830785220551e-14
11
9.2986722862691007
21
0
31
-2.7201830785220551e-14
0
LINE
5
124
100
AcDbEntity
8
BEND_EXTENT
100
AcDbLine
10
78.896016858807684
20
100
30
-4.4341574265699382e-13
11
78.896016858807684
21
0
31
-4.4341574265699382e-13
0
LINE
5
125
100
AcDbEntity
8
BEND_EXTENT
100
AcDbLine
10
75.59734457253839
20
0
30
-4.1699951896581403e-13
11
75.59734457253839
21
100
31
-4.1699951896581403e-13
0
LINE
5
126
100
AcDbEntity
8
BEND_EXTENT
100
AcDbLine
10
33.298672286269102
20
0
30
-1.4025633859927942e-13
11
33.298672286269102
21
100
31
-1.4025633859927942e-13
0
LINE
5
127
100
AcDbEntity
8
BEND_EXTENT
100
AcDbLine
10
36.59734457253839
20
100
30
-1.5390499750726981e-13
11
36.59734457253839
21
0
31
-1.5390499750726981e-13
0
ENDSEC
0
SECTION
2
OBJECTS
0
DICTIONARY
5
C
100
AcDbDictionary
3
ACAD_GROUP
350
D
3
ACAD_MLINESTYLE
350
17
0
DICTIONARY
5
D
100
AcDbDictionary
0
DICTIONARY
5
1A
330
C
100
AcDbDictionary
0
DICTIONARY
5
17
100
AcDbDictionary
0
ENDSEC
0
EOF
