0
SECTION
2
HEADER
9
$INSUNITS
70
4
9
$ACADVER
1
AC1014
9
$HANDSEED
5
FFFF
0
ENDSEC
0
SECTION
2
TABLES
0
TABLE
2
VPORT
5
8
100
AcDbSymbolTable
0
ENDTAB
0
TABLE
2
LTYPE
5
5
100
AcDbSymbolTable
0
LTYPE
5
14
100
AcDbSymbolTableRecord
100
AcDbLinetypeTableRecord
2
BYBLOCK
70
0
0
LTYPE
5
15
100
AcDbSymbolTableRecord
100
AcDbLinetypeTableRecord
2
BYLAYER
70
0
0
ENDTAB
0
TABLE
2
LAYER
5
2
100
AcDbSymbolTable
70
2
0
LAYER
5
50
100
AcDbSymbolTableRecord
100
AcDbLayerTableRecord
2
0
70
0
6
CONTINUOUS
0
ENDTAB
0
TABLE
2
STYLE
5
3
100
AcDbSymbolTable
70
1
0
STYLE
5
11
100
AcDbSymbolTableRecord
100
AcDbTextStyleTableRecord
2
STANDARD
70
0
0
ENDTAB
0
TABLE
2
VIEW
5
6
100
AcDbSymbolTable
70
0
0
ENDTAB
0
TABLE
2
UCS
5
7
100
AcDbSymbolTable
70
0
0
ENDTAB
0
TABLE
2
APPID
5
9
100
AcDbSymbolTable
70
2
0
APPID
5
12
100
AcDbSymbolTableRecord
100
AcDbRegAppTableRecord
2
ACAD
70
0
0
ENDTAB
0
TABLE
2
DIMSTYLE
5
A
100
AcDbSymbolTable
70
1
0
ENDTAB
0
TABLE
2
BLOCK_RECORD
5
1
100
AcDbSymbolTable
70
1
0
BLOCK_RECORD
5
1F
100
AcDbSymbolTableRecord
100
AcDbBlockTableRecord
2
*MODEL_SPACE
0
BLOCK_RECORD
5
1B
100
AcDbSymbolTableRecord
100
AcDbBlockTableRecord
2
*PAPER_SPACE
0
ENDTAB
0
ENDSEC
0
SECTION
2
BLOCKS
0
BLOCK
5
20
100
AcDbEntity
100
AcDbBlockBegin
2
*MODEL_SPACE
0
ENDBLK
5
21
100
AcDbEntity
100
AcDbBlockEnd
0
BLOCK
5
1C
100
AcDbEntity
100
AcDbBlockBegin
2
*PAPER_SPACE
0
ENDBLK
5
1D
100
AcDbEntity
100
AcDbBlockEnd
0
ENDSEC
0
SECTION
2
ENTITIES
0
LWPOLYLINE
5
100
100
AcDbEntity
8
OUTER_PROFILES
100
AcDbPolyline
90
48
70
1
43
0.0
10
-62.218664916098227
20
-3.9968028886505635e-14
10
-55.069328772963544
20
7.1493361431346383
42
-0.41421356237309398
10
-52.948008429403906
20
7.1493361431346383
10
-45.798672286269266
20
0
10
-16.419992629828926
20
-4.4408920985006262e-15
10
-9.2706564866942713
20
7.1493361431346427
42
-0.4142135623730947
10
-7.1493361431346303
20
7.1493361431346418
10
0
20
0
10
37.238012114489479
20
0
42
0.41421356237309503
10
38.238012114489479
20
1.0000000000000009
10
38.238012114489479
20
4.5000000000000062
42
0.41421356237309631
10
37.238012114489472
20
5.5000000000000071
10
30.439339828220181
20
5.5000000000000027
10
30.439339828220188
20
8.7986722862692837
10
41.238012114489479
20
8.7986722862692837
42
0.41421356237309481
10
44.238012114489472
20
11.79867228626928
10
44.238012114489472
20
28.998672286269276
42
0.41421356237309503
10
41.238012114489479
20
31.998672286269276
10
30.439339828220152
20
31.998672286269279
10
30.439339828220145
20
35.297344572538563
10
37.238012114489422
20
35.297344572538563
42
0.41421356237309503
10
38.238012114489422
20
36.297344572538563
10
38.238012114489422
20
39.797344572538549
42
0.41421356237309503
10
37.238012114489429
20
40.797344572538556
10
8.8817841970012523e-15
20
40.797344572538563
10
-7.1493361431346365
20
33.648008429403909
42
-0.41421356237309614
10
-9.2706564866942838
20
33.648008429403909
10
-16.419992629828918
20
40.797344572538549
10
-45.798672286269266
20
40.797344572538563
10
-52.948008429403934
20
33.648008429403895
42
-0.4142135623730932
10
-55.069328772963566
20
33.648008429403895
10
-62.21866491609822
20
40.797344572538556
10
-99.456677030587656
20
40.797344572538563
42
0.41421356237309892
10
-100.45667703058767
20
39.79734457253857
10
-100.45667703058766
20
36.297344572538563
42
0.41421356237309503
10
-99.456677030587656
20
35.297344572538563
10
-92.65800474431839
20
35.297344572538563
10
-92.65800474431839
20
31.998672286269276
10
-103.45667703058771
20
31.998672286269283
42
0.41421356237309465
10
-106.45667703058771
20
28.998672286269279
10
-106.45667703058771
20
11.798672286269291
42
0.41421356237309503
10
-103.45667703058771
20
8.7986722862692908
10
-92.65800474431839
20
8.7986722862692837
10
-92.65800474431839
20
5.499999999999976
10
-99.456677030587741
20
5.499999999999976
42
0.41421356237309587
10
-100.45667703058776
20
4.4999999999999947
10
-100.45667703058776
20
0.99999999999992539
42
0.4142135623730937
10
-99.456677030587755
20
-7.0360384185619296e-14
0
CIRCLE
5
101
100
AcDbEntity
8
INTERIOR_PROFILES
100
AcDbCircle
10
-38.988012114489472
20
13.298672308621029
30
0
40
1.6500000000000004
210
0
220
0
230
-1
0
CIRCLE
5
102
100
AcDbEntity
8
INTERIOR_PROFILES
100
AcDbCircle
10
101.2066770305877
20
27.498672286269272
30
0
40
1.6500000000000004
210
0
220
0
230
-1
0
CIRCLE
5
103
100
AcDbEntity
8
INTERIOR_PROFILES
100
AcDbCircle
10
101.2066770305877
20
13.298672286269273
30
0
40
1.6500000000000004
210
0
220
0
230
-1
0
CIRCLE
5
104
100
AcDbEntity
8
INTERIOR_PROFILES
100
AcDbCircle
10
-38.988012114489472
20
27.498672286269272
30
0
40
1.6500000000000004
210
0
220
0
230
-1
0
LINE
5
105
100
AcDbEntity
8
BEND
100
AcDbLine
10
-94.307340887453051
20
40.79734457253857
30
1.6360470230681088e-13
11
-94.307340887453051
21
35.29734457253857
31
1.6588753667041103e-13
0
LINE
5
106
100
AcDbEntity
8
BEND
100
AcDbLine
10
-94.307340887452995
20
5.4999999999999716
30
1.8371204998875559e-13
11
-94.307340887452995
21
-6.6613381477509392e-14
31
2.2117262093625318e-13
0
LINE
5
107
100
AcDbEntity
8
BEND
100
AcDbLine
10
-7.1493361431346418
20
7.1493361431346436
30
-1.8561288783314486e-15
11
30.439339828220177
21
7.1493361431346436
31
1.6140628970873581e-14
0
LINE
5
108
100
AcDbEntity
8
BEND
100
AcDbLine
10
30.439339828220152
20
33.648008429403916
30
1.8526105613285527e-14
11
-7.149336143134617
21
33.648008429403916
31
-2.2983024827241432e-15
0
LINE
5
109
100
AcDbEntity
8
BEND
100
AcDbLine
10
32.088675971354817
20
31.998672286269276
30
2.2105106205965206e-14
11
32.088675971354817
21
8.798672286269289
31
1.8558557973448317e-14
0
LINE
5
110
100
AcDbEntity
8
BEND
100
AcDbLine
10
-55.069328772963587
20
33.648008429403909
30
3.733594239299725e-15
11
-92.658004744318404
21
33.648008429403909
31
1.3334519495800586e-13
0
LINE
5
111
100
AcDbEntity
8
BEND
100
AcDbLine
10
-92.658004744318362
20
7.1493361431346258
30
1.429830409247262e-13
11
-55.069328772963573
21
7.1493361431346258
31
-2.3347106663915833e-14
0
LINE
5
112
100
AcDbEntity
8
BEND
100
AcDbLine
10
-94.307340887453051
20
8.798672286269289
30
1.6188115987364532e-13
11
-94.307340887453051
21
31.998672286269276
31
1.6542770810616219e-13
0
LINE
5
113
100
AcDbEntity
8
BEND
100
AcDbLine
10
-8.2099963149144486
20
7.5886759713548013
30
-1.6131841952754461e-16
11
-8.2099963149144486
21
33.208668601183746
31
-1.4373912072463534e-14
0
LINE
5
114
100
AcDbEntity
8
BEND
100
AcDbLine
10
-54.008668601183736
20
33.208668601183746
30
-2.936610821600959e-14
11
-54.008668601183736
21
7.5886759713548368
31
-7.2490102231236137e-15
0
LINE
5
115
100
AcDbEntity
8
BEND
100
AcDbLine
10
-52.948008429403892
20
7.1493361431346392
30
-7.5927317013436521e-15
11
-9.2706564866942465
21
7.1493361431346392
31
-5.9232787322684008e-15
0
LINE
5
116
100
AcDbEntity
8
BEND
100
AcDbLine
10
32.088675971354796
20
35.297344572538563
30
2.927674671112187e-14
11
32.088675971354796
21
40.797344572538556
31
2.8646112711598154e-14
0
LINE
5
117
100
AcDbEntity
8
BEND
100
AcDbLine
10
-9.2706564866942447
20
33.648008429403909
30
3.846396543097939e-15
11
-52.948008429403963
21
33.648008429403916
31
1.0573470041589767e-14
0
LINE
5
118
100
AcDbEntity
8
BEND
100
AcDbLine
10
32.088675971354832
20
0
30
1.7585538767116806e-14
11
32.088675971354832
21
5.5000000000000027
31
1.5112720041831676e-14
0
LINE
5
119
100
AcDbEntity
8
BEND_EXTENT
100
AcDbLine
10
33.738012114489472
20
31.998672286269276
30
2.336668354841849e-14
11
33.738012114489472
21
8.798672286269289
31
1.9820135315901601e-14
0
LINE
5
120
100
AcDbEntity
8
BEND_EXTENT
100
AcDbLine
10
-95.956677030587713
20
8.798672286269289
30
1.7589004582684857e-13
11
-95.956677030587713
21
31.998672286269276
31
1.7943659405936544e-13
0
LWPOLYLINE
5
121
100
AcDbEntity
8
BEND_EXTENT
100
AcDbPolyline
90
4
70
1
43
0.0
10
30.439339828220188
20
8.7986722862692837
10
30.439339828220152
20
31.998672286269279
10
-6.560660171779813
20
31.998672286269287
10
-6.5606601717798165
20
8.7986722862692837
0
LWPOLYLINE
5
122
100
AcDbEntity
8
BEND_EXTENT
100
AcDbPolyline
90
4
70
1
43
0.0
10
-92.65800474431839
20
31.998672286269276
10
-92.65800474431839
20
8.7986722862692837
10
-55.65800474431839
20
8.7986722862692837
10
-55.65800474431839
20
31.998672286269301
0
LINE
5
123
100
AcDbEntity
8
BEND_EXTENT
100
AcDbLine
10
-95.956677030587656
20
-6.6613381477509392e-14
30
2.2783571154138351e-13
11
-95.95667703058767
21
5.499999999999976
31
1.9314935127401826e-13
0
LINE
5
124
100
AcDbEntity
8
BEND_EXTENT
100
AcDbLine
10
-92.65800474431839
20
5.499999999999976
30
1.6104958935762488e-13
11
-92.65800474431839
21
-4.8849813083506888e-14
31
1.8019282728023789e-13
0
LINE
5
125
100
AcDbEntity
8
BEND_EXTENT
100
AcDbLine
10
-56.718664916098234
20
5.499999999999976
30
-2.7467373481332126e-14
11
-92.65800474431839
21
5.499999999999976
31
1.6104958935762488e-13
0
LINE
5
126
100
AcDbEntity
8
BEND_EXTENT
100
AcDbLine
10
33.738012114489429
20
40.797344572538556
30
2.4711723015891056e-14
11
33.738012114489429
21
35.297344572538563
31
2.3870946495251278e-14
0
LINE
5
127
100
AcDbEntity
8
BEND_EXTENT
100
AcDbLine
10
30.439339828220145
20
35.297344572538563
30
1.9333348599014499e-14
11
30.439339828220145
21
40.797344572538556
31
2.0174125119654283e-14
0
LINE
5
128
100
AcDbEntity
8
BEND_EXTENT
100
AcDbLine
10
-5.4999999999999734
20
35.297344572538563
30
5.1616158922353525e-16
11
30.439339828220145
21
35.297344572538563
31
1.9333348599014499e-14
0
LINE
5
129
100
AcDbEntity
8
BEND_EXTENT
100
AcDbLine
10
33.738012114489472
20
5.5000000000000027
30
1.9315872369068813e-14
11
33.738012114489472
21
0
31
2.7356880045430282e-14
0
LINE
5
130
100
AcDbEntity
8
BEND_EXTENT
100
AcDbLine
10
30.439339828220181
20
0
30
1.4215053708348533e-14
11
30.439339828220181
21
5.5000000000000027
31
1.5610941741300892e-14
0
LINE
5
131
100
AcDbEntity
8
BEND_EXTENT
100
AcDbLine
10
30.439339828220181
20
5.5000000000000027
30
1.5610941741300892e-14
11
-5.5000000000000071
21
5.5000000000000027
31
-9.8579921923975868e-16
0
LINE
5
132
100
AcDbEntity
8
BEND_EXTENT
100
AcDbLine
10
-95.95667703058767
20
35.297344572538563
30
1.4441372021819325e-13
11
-95.956677030587656
21
40.79734457253857
31
1.630180651328355e-13
0
LINE
5
133
100
AcDbEntity
8
BEND_EXTENT
100
AcDbLine
10
-92.65800474431839
20
40.79734457253857
30
1.6311477093057166e-13
11
-92.65800474431839
21
35.297344572538563
31
1.4895131811443003e-13
0
LINE
5
134
100
AcDbEntity
8
BEND_EXTENT
100
AcDbLine
10
-92.65800474431839
20
35.297344572538563
30
1.4895131811443003e-13
11
-56.718664916098227
21
35.297344572538549
31
-1.4308070914304681e-14
0
LINE
5
135
100
AcDbEntity
8
BEND_EXTENT
100
AcDbLine
10
-51.298672286269316
20
35.297344572538563
30
1.2496177336984403e-14
11
-10.919992629828883
21
35.297344572538549
31
-8.5245182680630533e-15
0
LWPOLYLINE
5
136
100
AcDbEntity
8
BEND_EXTENT
100
AcDbPolyline
90
4
70
1
43
0.0
10
-9.8593324580491029
20
31.998672286269287
10
-52.359332458049089
20
31.998672286269287
10
-52.359332458049089
20
8.7986722862692837
10
-9.8593324580491082
20
8.7986722862692837
0
LINE
5
137
100
AcDbEntity
8
BEND_EXTENT
100
AcDbLine
10
-10.919992629828885
20
5.5000000000000027
30
-5.5855869780257169e-15
11
-51.298672286269245
21
5.5000000000000027
31
-6.7693518654813928e-15
0
ENDSEC
0
SECTION
2
OBJECTS
0
DICTIONARY
5
C
100
AcDbDictionary
3
ACAD_GROUP
350
D
3
ACAD_MLINESTYLE
350
17
0
DICTIONARY
5
D
100
AcDbDictionary
0
DICTIONARY
5
1A
330
C
100
AcDbDictionary
0
DICTIONARY
5
17
100
AcDbDictionary
0
ENDSEC
0
EOF
